<?xml version="1.0" encoding="UTF-8" standalone="no"?>
<!-- Created with Inkscape (http://www.inkscape.org/) -->

<svg
   xmlns:dc="http://purl.org/dc/elements/1.1/"
   xmlns:cc="http://creativecommons.org/ns#"
   xmlns:rdf="http://www.w3.org/1999/02/22-rdf-syntax-ns#"
   xmlns:svg="http://www.w3.org/2000/svg"
   xmlns="http://www.w3.org/2000/svg"
   version="1.2"
   width="822.53705"
   height="623.99365"
   id="svg2"
   xml:space="preserve"><metadata
     id="metadata8"><rdf:RDF><cc:Work
         rdf:about=""><dc:format>image/svg+xml</dc:format><dc:type
           rdf:resource="http://purl.org/dc/dcmitype/StillImage" /><dc:title></dc:title></cc:Work></rdf:RDF></metadata><defs
     id="defs6"><clipPath
       id="clipPath20"><path
         d="m 59.04,73.44 752.4,0 0,462.96 -752.4,0 0,-462.96 z"
         id="path22" /></clipPath><clipPath
       id="clipPath34"><path
         d="m 59.04,73.44 752.4,0 0,462.96 -752.4,0 0,-462.96 z"
         id="path36" /></clipPath></defs><g
     transform="matrix(1.25,0,0,-1.25,-138.66525,679.1446)"
     id="g10"><g
       clip-path="url(#clipPath20)"
       id="g18" /><g
       id="g3198"><rect
         width="822.53705"
         height="623.99365"
         x="138.66525"
         y="64.6054"
         transform="matrix(0.8,0,0,-0.8,0,595)"
         id="rect3196"
         style="fill:#ffffff;fill-opacity:1;stroke:none" /><path
         d="m 208.51,385.07 c 0,73.8 60.38,134.18 134.19,134.18 73.8,0 134.18,-60.38 134.18,-134.18 0,-73.81 -60.38,-134.19 -134.18,-134.19 -73.81,0 -134.19,60.38 -134.19,134.19"
         id="path38"
         style="fill:none;stroke:#000000;stroke-width:0.75;stroke-linecap:round;stroke-linejoin:round;stroke-miterlimit:10;stroke-opacity:1;stroke-dasharray:none" /><path
         d="m 393.6,385.07 c 0,73.8 60.38,134.18 134.18,134.18 73.81,0 134.19,-60.38 134.19,-134.18 0,-73.81 -60.38,-134.19 -134.19,-134.19 -73.8,0 -134.18,60.38 -134.18,134.19"
         id="path40"
         style="fill:none;stroke:#000000;stroke-width:0.75;stroke-linecap:round;stroke-linejoin:round;stroke-miterlimit:10;stroke-opacity:1;stroke-dasharray:none" /><path
         d="m 301.05,224.77 c 0,73.81 60.39,134.19 134.19,134.19 73.8,0 134.19,-60.38 134.19,-134.19 0,-73.8 -60.39,-134.18 -134.19,-134.18 -73.8,0 -134.19,60.38 -134.19,134.18"
         id="path42"
         style="fill:none;stroke:#000000;stroke-width:0.75;stroke-linecap:round;stroke-linejoin:round;stroke-miterlimit:10;stroke-opacity:1;stroke-dasharray:none" /><text
         x="302.07999"
         y="-386.53751"
         transform="scale(1,-1)"
         id="text56"
         style="font-size:15.37042141px"><tspan
           x="302.07999 310.62595 314.89899 323.44492"
           y="-386.53751"
           id="tspan58"
           style="font-size:15.37042141px;font-variant:normal;font-weight:normal;writing-mode:lr-tb;fill:#000000;fill-opacity:1;fill-rule:nonzero;stroke:none;font-family:Helvetica;-inkscape-font-specification:Helvetica">0.07</tspan></text>
<text
         x="539.15656"
         y="-386.53751"
         transform="scale(1,-1)"
         id="text60"
         style="font-size:15.37042141px"><tspan
           x="539.15656 547.70239 551.9754 560.52142"
           y="-386.53751"
           id="tspan62"
           style="font-size:15.37042141px;font-variant:normal;font-weight:normal;writing-mode:lr-tb;fill:#000000;fill-opacity:1;fill-rule:nonzero;stroke:none;font-family:Helvetica;-inkscape-font-specification:Helvetica">0.05</tspan></text>
<text
         x="420.61157"
         y="-181.22713"
         transform="scale(1,-1)"
         id="text64"
         style="font-size:15.37042141px"><tspan
           x="420.61157 429.15753 433.43051 441.97641"
           y="-181.22713"
           id="tspan66"
           style="font-size:15.37042141px;font-variant:normal;font-weight:normal;writing-mode:lr-tb;fill:#000000;fill-opacity:1;fill-rule:nonzero;stroke:none;font-family:Helvetica;-inkscape-font-specification:Helvetica">0.01</tspan></text>
<text
         x="420.61157"
         y="-386.53751"
         transform="scale(1,-1)"
         id="text68"
         style="font-size:15.37042141px"><tspan
           x="420.61157 429.15753 433.43051 441.97641"
           y="-386.53751"
           id="tspan70"
           style="font-size:15.37042141px;font-variant:normal;font-weight:normal;writing-mode:lr-tb;fill:#000000;fill-opacity:1;fill-rule:nonzero;stroke:none;font-family:Helvetica;-inkscape-font-specification:Helvetica">0.12</tspan></text>
<text
         x="479.89017"
         y="-283.88876"
         transform="scale(1,-1)"
         id="text72"
         style="font-size:15.37042141px"><tspan
           x="479.89017 488.43613 492.70908 501.25504"
           y="-283.88876"
           id="tspan74"
           style="font-size:15.37042141px;font-variant:normal;font-weight:normal;writing-mode:lr-tb;fill:#000000;fill-opacity:1;fill-rule:nonzero;stroke:none;font-family:Helvetica;-inkscape-font-specification:Helvetica">0.08</tspan></text>
<text
         x="420.61157"
         y="-318.10077"
         transform="scale(1,-1)"
         id="text76"
         style="font-size:15.37042141px"><tspan
           x="420.61157 429.15753 433.43051 441.97641"
           y="-318.10077"
           id="tspan78"
           style="font-size:15.37042141px;font-variant:normal;font-weight:normal;writing-mode:lr-tb;fill:#000000;fill-opacity:1;fill-rule:nonzero;stroke:none;font-family:Helvetica;-inkscape-font-specification:Helvetica">0.00</tspan></text>
<text
         x="606.8609"
         y="-89.542519"
         transform="scale(1,-1)"
         id="text80"
         style="font-size:18.8583889px"><tspan
           x="606.8609 620.47656 630.96191 640.39099 644.57764 655.06299 665.5481 676.03345 680.22003 689.64911 694.89185 705.90509 711.14771 721.63306 726.87555 737.3609"
           y="-89.542519"
           id="tspan82"
           style="font-size:18.8583889px;font-variant:normal;font-weight:normal;writing-mode:lr-tb;fill:#000000;fill-opacity:1;fill-rule:nonzero;stroke:none;font-family:Helvetica;-inkscape-font-specification:Helvetica">Residuals = 0.67</tspan></text>
<flowRoot
         transform="matrix(0.8,0,0,-0.8,-38.4,582.2)"
         id="flowRoot3117"
         xml:space="preserve"
         style="font-size:7px;font-style:normal;font-weight:normal;line-height:125%;letter-spacing:0px;word-spacing:0px;fill:#000000;fill-opacity:1;stroke:none;font-family:Sans"><flowRegion
           id="flowRegion3119"><rect
             width="239.51271"
             height="36.242054"
             x="203.27066"
             y="56.726696"
             id="rect3121" /></flowRegion><flowPara
           id="flowPara3123"
           style="font-size:20px">Mean annual precip</flowPara></flowRoot><flowRoot
         transform="matrix(0.8,0,0,-0.8,447.49768,584.54136)"
         id="flowRoot3117-5"
         xml:space="preserve"
         style="font-size:7px;font-style:normal;font-weight:normal;line-height:125%;letter-spacing:0px;word-spacing:0px;fill:#000000;fill-opacity:1;stroke:none;font-family:Sans"><flowRegion
           id="flowRegion3119-5"><rect
             width="239.51271"
             height="36.242054"
             x="203.27066"
             y="56.726696"
             id="rect3121-6" /></flowRegion><flowPara
           id="flowPara3123-2"
           style="font-size:20px">Canopy gap fraction</flowPara></flowRoot><flowRoot
         transform="matrix(0.8,0,0,-0.8,239.40319,112.25534)"
         id="flowRoot3117-4"
         xml:space="preserve"
         style="font-size:7px;font-style:normal;font-weight:normal;line-height:125%;letter-spacing:0px;word-spacing:0px;fill:#000000;fill-opacity:1;stroke:none;font-family:Sans"><flowRegion
           id="flowRegion3119-4"><rect
             width="239.51271"
             height="36.242054"
             x="203.27066"
             y="56.726696"
             id="rect3121-62" /></flowRegion><flowPara
           id="flowPara3123-5"
           style="font-size:20px">Leaf age</flowPara></flowRoot></g></g></svg>